HIERARCHY
ROOT joint_0
{
	OFFSET 0.000000 0.000000 0.000000
	CHANNELS 6 Xposition Yposition Zposition Zrotation Yrotation Xrotation 
	JOINT joint_1
	{
		OFFSET 14.113007 -2.961990 123.953979
		CHANNELS 3 Zrotation Yrotation Xrotation
		JOINT joint_2
		{
			OFFSET 0.764000 -2.434006 113.871948
			CHANNELS 3 Zrotation Yrotation Xrotation
			JOINT joint_3
			{
				OFFSET 0.186996 -2.169998 113.753052
				CHANNELS 3 Zrotation Yrotation Xrotation
				JOINT joint_4
				{
					OFFSET 16.096001 -2.720001 160.853027
					CHANNELS 3 Zrotation Yrotation Xrotation
					JOINT joint_5
					{
						OFFSET 34.392006 -0.188995 92.567017
						CHANNELS 3 Zrotation Yrotation Xrotation
						End Site
						{
							OFFSET 0.000000 0.000000 0.000000
						}
					}
				}
				JOINT joint_6
				{
					OFFSET 9.183998 -36.684006 89.597046
					CHANNELS 3 Zrotation Yrotation Xrotation
					JOINT joint_7
					{
						OFFSET 0.486000 -164.365997 -28.984009
						CHANNELS 3 Zrotation Yrotation Xrotation
						JOINT joint_8
						{
							OFFSET 38.899002 -34.967010 -291.651978
							CHANNELS 3 Zrotation Yrotation Xrotation
							JOINT joint_9
							{
								OFFSET 41.714005 -45.890991 -258.857056
								CHANNELS 3 Zrotation Yrotation Xrotation
								End Site
								{
									OFFSET 0.000000 0.000000 0.000000
								}
							}
						}
					}
				}
				JOINT joint_10
				{
					OFFSET 8.867004 33.650002 90.817993
					CHANNELS 3 Zrotation Yrotation Xrotation
					JOINT joint_11
					{
						OFFSET 0.018997 164.299999 -29.368042
						CHANNELS 3 Zrotation Yrotation Xrotation
						JOINT joint_12
						{
							OFFSET 29.440994 30.887997 -293.216919
							CHANNELS 3 Zrotation Yrotation Xrotation
							JOINT joint_13
							{
								OFFSET 46.174011 54.490005 -256.422058
								CHANNELS 3 Zrotation Yrotation Xrotation
								End Site
								{
									OFFSET 0.000000 0.000000 0.000000
								}
							}
						}
					}
				}
			}
		}
	}
	JOINT joint_14
	{
		OFFSET -2.264000 -89.466995 -116.150024
		CHANNELS 3 Zrotation Yrotation Xrotation
		JOINT joint_15
		{
			OFFSET -16.400993 -17.452988 -493.781982
			CHANNELS 3 Zrotation Yrotation Xrotation
			JOINT joint_16
			{
				OFFSET -50.497004 -13.404022 -424.754013
				CHANNELS 3 Zrotation Yrotation Xrotation
				JOINT joint_17
				{
					OFFSET 198.546007 -19.341003 -89.309000
					CHANNELS 3 Zrotation Yrotation Xrotation
					End Site
					{
						OFFSET 0.000000 0.000000 0.000000
					}
				}
			}
		}
	}
	JOINT joint_18
	{
		OFFSET -0.867996 96.016006 -110.817993
		CHANNELS 3 Zrotation Yrotation Xrotation
		JOINT joint_19
		{
			OFFSET -10.130997 24.658998 -493.645020
			CHANNELS 3 Zrotation Yrotation Xrotation
			JOINT joint_20
			{
				OFFSET -48.871004 19.434999 -424.714005
				CHANNELS 3 Zrotation Yrotation Xrotation
				JOINT joint_21
				{
					OFFSET 195.579996 24.926001 -94.327003
					CHANNELS 3 Zrotation Yrotation Xrotation
					End Site
					{
						OFFSET 0.000000 0.000000 0.000000
					}
				}
			}
		}
	}
}
MOTION
Frames: 8
Frame Time: 0.016667
-2213.740967 850.573059 1114.515991 4.351716 4.893372 2.719130 -1.252367 1.914109 5.976389 -1.259150 -0.261218 -1.169002 -1.255491 0.301476 0.930999 -0.994400 -2.354313 2.671996 0.000000 0.000000 0.000000 -0.660733 -5.252579 -5.655147 -6.515161 -0.683787 -14.883361 -169.811167 -70.739643 -151.954166 0.000000 0.000000 0.000000 3.095816 2.534223 8.566475 1.462399 6.972719 18.804120 175.120959 -84.275366 172.270513 0.000000 0.000000 0.000000 7.490773 -28.071668 -10.813136 10.433881 5.984679 0.456852 10.675040 2.773543 4.571766 0.000000 0.000000 0.000000 -6.157988 1.412076 1.313156 -4.951052 24.100801 -5.084252 -8.194835 -7.502182 -2.387535 0.000000 0.000000 0.000000 
-2197.985840 845.427612 1104.771973 5.273011 3.622914 2.406737 -1.062278 2.457015 7.029269 -1.039672 -0.307474 -1.378848 -1.022168 0.397919 1.120650 -1.040467 -2.096997 2.805551 0.000000 0.000000 0.000000 -0.294768 -5.536766 -6.201636 -8.131978 -0.901439 -15.616085 -171.077739 -69.596402 -149.411608 0.000000 0.000000 0.000000 2.928894 1.738122 8.252952 1.185821 6.041602 19.552840 174.801882 -85.910841 172.341985 0.000000 0.000000 0.000000 6.798659 -28.532998 -9.744714 9.242162 10.428124 1.123316 10.154254 3.261884 4.417771 0.000000 0.000000 0.000000 -7.001442 1.136639 2.780416 -5.476422 29.077713 -6.619027 -9.955542 -8.097932 -2.929279 0.000000 0.000000 0.000000 
-2183.986084 840.568054 1096.277954 6.387587 2.463467 2.157956 -1.009603 3.081528 7.872533 -0.932885 -0.385382 -1.519692 -0.899157 0.480585 1.276849 -1.097269 -1.931522 2.951982 0.000000 0.000000 0.000000 -0.053540 -5.853497 -6.450044 -9.076503 -1.161452 -16.028187 -171.915170 -69.040085 -148.120314 0.000000 0.000000 0.000000 2.519032 0.908840 7.875611 1.035737 5.096363 20.064483 174.524582 -87.355417 172.262766 0.000000 0.000000 0.000000 5.946526 -29.092748 -8.994179 7.982642 15.045900 1.826117 9.779237 3.414432 4.279348 0.000000 0.000000 0.000000 -7.961953 0.464017 4.010152 -6.105119 33.997120 -7.846311 -11.909789 -7.502192 -3.668518 0.000000 0.000000 0.000000 
-2172.592285 836.153687 1089.666992 7.789502 1.622199 2.059788 -1.163600 3.670020 8.385399 -1.002478 -0.429219 -1.575642 -0.951139 0.575622 1.358984 -1.170049 -1.934599 3.107392 0.000000 0.000000 0.000000 -0.103930 -6.255136 -6.205486 -8.668849 -1.441997 -15.905322 -171.842399 -69.361796 -149.217317 0.000000 0.000000 0.000000 1.605870 0.149786 7.367702 1.156310 4.255478 20.355625 174.449980 -88.097315 171.948091 0.000000 0.000000 0.000000 5.091614 -29.946452 -8.987403 6.979589 19.518762 2.730740 9.905790 2.710334 4.245790 0.000000 0.000000 0.000000 -9.135596 -1.064232 4.823732 -6.891496 38.958787 -8.628800 -14.126439 -5.008966 -4.717346 0.000000 0.000000 0.000000 
-2162.954102 832.026245 1084.306030 9.371955 0.898894 2.000386 -1.429641 4.339353 8.768323 -1.185093 -0.514506 -1.603340 -1.120508 0.685644 1.403556 -1.248865 -2.031013 3.253931 0.000000 0.000000 0.000000 -0.275598 -6.687340 -5.641921 -7.428854 -1.734329 -15.528842 -171.188999 -70.290847 -151.845694 0.000000 0.000000 0.000000 0.456841 -0.637753 6.759592 1.413654 3.428908 20.495772 174.458880 -88.553144 171.502414 0.000000 0.000000 0.000000 4.127494 -30.898720 -9.304190 5.961160 24.208985 3.701626 10.283700 1.704185 4.272373 0.000000 0.000000 0.000000 -10.407083 -3.053386 5.413489 -7.759875 43.784134 -9.139575 -16.630102 -1.161056 -6.020755 0.000000 0.000000 0.000000 
-2153.972168 828.326965 1080.515991 10.589164 0.261394 1.916615 -1.629669 5.034821 9.081749 -1.302370 -0.660376 -1.636800 -1.224683 0.789333 1.442844 -1.318173 -2.097417 3.377334 0.000000 0.000000 0.000000 -0.318636 -6.847674 -5.103790 -5.934739 -1.881540 -15.032786 -170.363247 -71.491523 -155.197272 0.000000 0.000000 0.000000 -0.368022 -1.494572 6.268748 1.537633 2.600742 20.315781 174.302573 -89.317047 171.274812 0.000000 0.000000 0.000000 3.425676 -31.427080 -9.487058 5.100520 27.818703 4.315072 10.581965 1.078145 4.303010 0.000000 0.000000 0.000000 -11.355665 -4.867129 5.909547 -8.386966 47.904297 -9.533886 -18.910260 2.213114 -7.187183 0.000000 0.000000 0.000000 
-2145.174561 825.015625 1078.676025 10.981734 -0.189732 1.809247 -1.660999 5.569729 9.279927 -1.196014 -0.782529 -1.690152 -1.090277 0.887818 1.503177 -1.381860 -2.065311 3.502196 0.000000 0.000000 0.000000 -0.067052 -6.505888 -4.749014 -4.200337 -1.742457 -14.245987 -169.441214 -72.841663 -159.538602 0.000000 0.000000 0.000000 -0.581622 -2.457880 5.997089 1.373435 1.740754 19.547351 -6.198002 -89.301415 -8.427758 0.000000 0.000000 0.000000 3.304544 -31.496439 -9.258947 4.544014 29.932235 4.414716 10.625383 0.739581 4.268075 0.000000 0.000000 0.000000 -11.785793 -6.361577 6.386761 -8.603056 51.444551 -9.964116 -20.800099 4.144086 -8.041004 0.000000 0.000000 0.000000 
-2137.034180 822.131348 1078.407959 10.857225 -0.447796 1.707863 -1.617495 5.947611 9.363717 -0.966892 -0.857341 -1.750310 -0.822154 0.985333 1.563377 -1.439529 -2.000190 3.620842 0.000000 0.000000 0.000000 0.312506 -6.021486 -4.424197 -2.389473 -1.527811 -13.243743 -168.479496 -74.346908 -164.382759 0.000000 0.000000 0.000000 -0.480089 -3.444931 5.811441 1.096646 0.879090 18.464818 -6.842140 -87.627224 -7.856932 0.000000 0.000000 0.000000 3.548293 -31.387881 -8.847647 4.210189 31.190939 4.297756 10.551041 0.386999 4.191208 0.000000 0.000000 0.000000 -11.847348 -7.804801 6.844249 -8.528839 54.594975 -10.328008 -22.232787 5.129529 -8.619094 0.000000 0.000000 0.000000 
